<svg width="19" height="18" viewBox="0 0 19 18" fill="none" xmlns="http://www.w3.org/2000/svg">
<path fill-rule="evenodd" clip-rule="evenodd" d="M13.7361 10.9348C13.905 11.0931 13.9999 11.3076 13.9999 11.5314C13.9999 11.7551 13.905 11.9697 13.7361 12.1279L10.1316 15.503C9.96258 15.6611 9.73341 15.75 9.49447 15.75C9.25552 15.75 9.02636 15.6611 8.85737 15.503L5.25287 12.1279C5.08872 11.9688 4.99789 11.7556 4.99994 11.5344C5.002 11.3132 5.09677 11.1016 5.26384 10.9451C5.43092 10.7887 5.65693 10.6999 5.89321 10.698C6.12948 10.6961 6.3571 10.7811 6.52706 10.9348L8.59334 12.8696L8.59334 3.09376C8.59334 2.86998 8.68828 2.65537 8.85728 2.49713C9.02627 2.3389 9.25548 2.25 9.49447 2.25C9.73346 2.25 9.96267 2.3389 10.1317 2.49713C10.3007 2.65537 10.3956 2.86998 10.3956 3.09376L10.3956 12.8696L12.4619 10.9348C12.6309 10.7767 12.86 10.6878 13.099 10.6878C13.3379 10.6878 13.5671 10.7767 13.7361 10.9348Z" fill="#616D8D"/>
</svg>
