<svg width="16" height="17" viewBox="0 0 16 17" fill="none" xmlns="http://www.w3.org/2000/svg">
<path d="M14.2788 4.1849H11.2V2.99702C11.2 2.48793 10.7879 2.07581 10.2788 2.07581H5.64849C5.1394 2.07581 4.72728 2.48793 4.72728 2.99702V4.1849H1.72122C0.896977 4.1849 0.242432 4.86368 0.242432 5.66368V6.51217L7.12728 9.71217C7.17577 9.25156 7.5394 8.88793 8.00001 8.88793C8.46061 8.88793 8.84849 9.25156 8.87274 9.71217L15.7576 6.51217V5.66368C15.7576 4.86368 15.103 4.1849 14.2788 4.1849ZM10.7152 4.1849H5.21213V2.99702C5.21213 2.75459 5.40607 2.56065 5.64849 2.56065H10.2788C10.5212 2.56065 10.7152 2.75459 10.7152 2.99702V4.1849Z" fill="#4785FF"/>
<path d="M8.41213 10.8273V9.78492C8.41213 9.56674 8.24244 9.3728 8.00001 9.3728C7.75759 9.3728 7.58789 9.5425 7.58789 9.78492V10.8273C7.58789 11.0455 7.75759 11.2395 8.00001 11.2395C8.24244 11.2395 8.41213 11.0455 8.41213 10.8273Z" fill="#4785FF"/>
<path d="M8.89698 10.8274C8.89698 11.3122 8.5091 11.7243 8.00001 11.7243C7.49092 11.7243 7.10304 11.3364 7.10304 10.8274V10.2455L0.242432 7.04553V13.4455C0.242432 14.2698 0.896977 14.9243 1.72122 14.9243H14.2788C15.103 14.9243 15.7576 14.2698 15.7576 13.4455V7.04553L8.89698 10.2455V10.8274Z" fill="#4785FF"/>
</svg>
